<?xml version="1.0" encoding="utf-8"?>
<!-- Generator: Adobe Illustrator 16.0.3, SVG Export Plug-In . SVG Version: 6.00 Build 0)  -->
<!DOCTYPE svg PUBLIC "-//W3C//DTD SVG 1.1//EN" "http://www.w3.org/Graphics/SVG/1.1/DTD/svg11.dtd">
<svg version="1.1" id="Layer_1" xmlns="http://www.w3.org/2000/svg" xmlns:xlink="http://www.w3.org/1999/xlink" x="0px" y="0px"
	 width="612px" height="118px" viewBox="294 449.5 612 118" enable-background="new 294 449.5 612 118" xml:space="preserve">
<path fill="#FFFFFF" d="M335.583,540.279c-10.038,0-19.281-3.577-25.641-9.839c-6.659-6.261-10.436-13.417-10.436-22.859
	c0-9.44,3.379-18.484,10.039-24.646c2.981-2.783,7.652-6.261,11.627-8.05l1.392-3.18c-5.367,1.987-11.23,5.366-15.404,9.441
	c-7.455,7.057-12.026,16.696-12.026,27.33c0,10.833,4.572,20.475,11.827,27.431c7.454,7.055,17.392,11.229,28.623,11.229
	c11.23,0,21.268-4.175,28.623-11.229c7.454-7.057,11.827-16.598,11.827-27.231c0-10.634-4.571-20.473-11.827-27.231
	c-4.174-4.076-9.938-7.454-15.405-9.442l1.392,3.18c3.976,1.789,8.646,5.168,11.628,8.051c6.659,6.261,10.038,15.206,10.038,24.647
	s-3.776,16.597-10.436,22.859C354.863,536.702,345.62,540.279,335.583,540.279"/>
<polygon fill="#FFFFFF" points="335.583,451.132 309.941,520.105 335.583,503.21 361.422,520.105 "/>
<polygon fill="#FFFFFF" points="420.159,511.262 420.159,482.239 430.197,482.239 430.197,529.049 419.762,529.049 401.176,500.427 
	401.176,529.049 391.139,529.049 391.139,482.239 401.376,482.239 "/>
<path fill="#FFFFFF" d="M460.509,481.643c12.82,0,21.268,7.057,21.268,23.058c0,16-7.851,24.945-23.157,24.945
	c-12.82,0-21.069-7.454-21.069-23.454C437.85,490.19,445.005,481.643,460.509,481.643 M459.515,521.298
	c8.846,0,12.225-4.174,12.225-16.796c0-11.231-3.379-14.61-11.429-14.61c-8.647,0-12.225,3.975-12.225,16.399
	C448.086,517.422,451.464,521.298,459.515,521.298"/>
<path fill="#FFFFFF" d="M523.022,496.452c0,7.852-4.572,11.826-10.236,13.416l12.224,19.281h-12.224l-10.436-18.188h-2.783v18.188
	h-10.039v-46.91h17.393C518.152,482.239,523.022,487.208,523.022,496.452 M505.531,502.415c4.77,0,7.652-1.392,7.652-6.261
	c0-4.97-2.981-5.765-8.447-5.765h-5.168v11.827h5.963V502.415z"/>
<path fill="#FFFFFF" d="M531.768,482.239h16.598c16,0,22.858,9.64,22.858,23.455c0,15.406-8.845,23.455-24.25,23.455h-15.207
	V482.239L531.768,482.239z M541.607,521.298h4.571c8.845,0,14.61-2.981,14.61-15.604c0-12.224-5.168-15.604-14.212-15.604h-4.969
	V521.298z"/>
<rect x="578.877" y="482.239" fill="#FFFFFF" width="10.037" height="46.712"/>
<path fill="#FFFFFF" d="M631.45,491.979c-2.782-0.993-6.261-1.987-10.831-1.987c-9.84,0-14.016,4.771-14.016,16.001
	c0,10.437,3.183,15.405,13.617,15.405c4.572,0,8.845-1.392,12.224-3.181l1.392,7.652c-3.578,1.987-9.441,3.776-16,3.776
	c-14.61,0-21.269-11.031-21.269-23.653c0-13.417,6.659-24.449,22.262-24.449c4.572,0,10.834,0.795,14.41,2.385L631.45,491.979z"/>
<polygon fill="#FFFFFF" points="674.485,514.44 685.517,482.239 696.349,482.239 678.56,529.248 670.112,529.248 652.619,482.239 
	663.453,482.239 "/>
<rect x="702.312" y="482.239" fill="#FFFFFF" width="10.039" height="46.712"/>
<path fill="#FFFFFF" d="M722.786,518.515c4.57,1.791,9.839,2.982,14.013,2.982c4.372,0,6.856-1.988,6.856-4.97
	c0-3.181-2.583-4.971-7.453-6.858c-8.05-2.782-15.205-5.167-15.205-14.608c0-9.044,8.249-13.218,17.391-13.218
	c5.168,0,10.237,1.192,13.614,2.583l-1.985,8.447c-4.175-1.788-9.044-2.583-11.429-2.583c-4.174,0-7.257,1.59-7.257,4.771
	c0,3.18,3.978,4.77,8.448,6.261c8.447,2.584,13.815,7.056,13.815,14.41c0,8.646-6.857,14.213-16.398,14.213
	c-6.263,0-13.019-1.393-16.795-3.378L722.786,518.515z"/>
<rect x="761.446" y="482.239" fill="#FFFFFF" width="10.038" height="46.712"/>
<polygon fill="#FFFFFF" points="801.795,490.588 801.795,529.049 791.759,529.049 791.759,490.588 778.145,490.588 778.145,482.239 
	815.412,482.239 815.412,490.588 "/>
<path fill="#FFFFFF" d="M838.867,481.643c12.819,0,21.268,7.057,21.268,23.058c0,16-7.851,24.945-23.057,24.945
	c-12.821,0-21.069-7.454-21.069-23.454C816.206,490.19,823.362,481.643,838.867,481.643 M837.874,521.298
	c8.844,0,12.224-4.174,12.224-16.796c0-11.231-3.38-14.61-11.431-14.61c-8.646,0-12.224,3.975-12.224,16.399
	C826.245,517.422,829.823,521.298,837.874,521.298"/>
<path fill="#FFFFFF" d="M901.38,496.452c0,7.852-4.571,11.826-10.236,13.416l12.224,19.181h-12.224l-10.436-18.186h-2.784v18.186
	h-10.038v-46.81h17.394C896.51,482.239,901.38,487.208,901.38,496.452 M883.889,502.415c4.77,0,7.652-1.392,7.652-6.261
	c0-4.97-2.982-5.765-8.448-5.765h-5.169v11.827h5.965V502.415z"/>
<g opacity="0.6">
	<path fill="#FFFFFF" d="M592.393,546.642v19.976h-5.467v-19.976h-7.652v-5.07h20.771v5.07H592.393z"/>
	<path fill="#FFFFFF" d="M619.326,566.617l-5.367-8.05h-4.372v8.05h-5.367v-25.046h11.428c5.864,0,9.442,3.082,9.442,8.25v0.1
		c0,4.073-2.187,6.56-5.367,7.751l6.063,8.945H619.326L619.326,566.617z M619.426,550.12c0-2.386-1.69-3.579-4.274-3.579h-5.466
		v7.156h5.565C617.935,553.697,619.426,552.307,619.426,550.12L619.426,550.12z"/>
	<path fill="#FFFFFF" d="M648.643,566.617l-2.284-5.565h-10.534l-2.287,5.565h-5.565l10.733-25.146h5.069l10.733,25.146H648.643z
		 M641.091,548.031l-3.279,8.15h6.659L641.091,548.031z"/>
	<path fill="#FFFFFF" d="M667.526,566.717h-4.869l-10.138-25.146h6.063l6.56,17.592l6.56-17.592h5.962L667.526,566.717z"/>
	<path fill="#FFFFFF" d="M681.441,566.617v-25.046h18.883v4.872h-13.417v5.068h11.826v4.869h-11.826v5.267h13.616v4.869h-19.082
		V566.617z"/>
	<path fill="#FFFFFF" d="M705.394,566.617v-25.046h5.466v19.977h12.421v4.969h-17.887V566.617z"/>
	<path fill="#FFFFFF" d="M738.288,566.617v-25.046h18.885v4.872h-13.418v5.068h11.828v4.869h-11.828v5.267h13.516v4.869h-18.982
		V566.617z"/>
	<path fill="#FFFFFF" d="M777.845,566.617l-5.565-8.548l-5.665,8.548h-6.261l8.744-12.721l-8.445-12.325h6.458l5.268,8.15
		l5.268-8.15h6.261l-8.35,12.225l8.748,12.821H777.845L777.845,566.617z"/>
	<path fill="#FFFFFF" d="M798.02,559.063h-4.173v7.454h-5.467v-24.945h10.236c5.962,0,9.54,3.579,9.54,8.648v0.099
		C808.156,556.083,803.685,559.063,798.02,559.063z M802.592,550.318c0-2.485-1.69-3.777-4.475-3.777h-4.271v7.652h4.371
		C801.001,554.193,802.592,552.505,802.592,550.318L802.592,550.318z"/>
	<path fill="#FFFFFF" d="M812.231,566.617v-25.046h18.884v4.872h-13.418v5.068h11.826v4.869h-11.826v5.267h13.615v4.869h-19.081
		V566.617z"/>
	<path fill="#FFFFFF" d="M851.39,566.617l-5.367-8.05h-4.372v8.05h-5.467v-25.046h11.429c5.863,0,9.441,3.082,9.441,8.25v0.1
		c0,4.073-2.187,6.56-5.367,7.751l6.063,8.945H851.39L851.39,566.617z M851.49,550.12c0-2.386-1.691-3.579-4.275-3.579h-5.466v7.156
		h5.566C849.898,553.697,851.49,552.307,851.49,550.12L851.49,550.12z"/>
	<path fill="#FFFFFF" d="M873.354,546.642v19.976h-5.468v-19.976h-7.651v-5.07h20.771v5.07H873.354z"/>
	<path fill="#FFFFFF" d="M893.527,566.915c-3.775,0-7.651-1.292-10.634-3.976l3.281-3.877c2.284,1.891,4.571,3.083,7.452,3.083
		c2.287,0,3.579-0.896,3.579-2.386v-0.099c0-1.392-0.896-2.088-5.07-3.181c-5.068-1.293-8.247-2.685-8.247-7.652v-0.101
		c0-4.572,3.677-7.553,8.745-7.553c3.677,0,6.758,1.192,9.242,3.179l-2.882,4.175c-2.186-1.49-4.373-2.483-6.46-2.483
		s-3.18,0.993-3.18,2.186v0.099c0,1.691,1.093,2.188,5.367,3.281c5.068,1.292,7.949,3.18,7.949,7.452v0.101
		C902.673,564.132,898.896,566.915,893.527,566.915z"/>
</g>
</svg>
