<svg xmlns="http://www.w3.org/2000/svg" viewBox="0 0 60 60"><path d="M33.6 38.3c1.1 4.4 3.7 8 3.7 8 0-0.1 0-0.1 0-0.2 -1.4-6.2 0.4-12.7 4.6-17.5l3.2-3.7 0.4 0.5c0.4 0.6 0.7 1.2 1 1.8V9c-15.3 0-22-8-22-8s-6.7 8-22 8v19.1c0 10 4.3 19.6 12.2 25.7 2.8 2.2 6 4.1 9.8 5.2 3.8-1.1 7.1-3 9.8-5.2 0 0 0 0 0 0C30.8 49.3 30.6 43.1 33.6 38.3z" fill="#5C6887"/><path d="M2.5 9v19.1c0 10 4.3 19.6 12.2 25.7 2.8 2.2 6 4.1 9.8 5.2v-58C24.5 1 17.8 9 2.5 9z" fill="#8697CB"/><path d="M24.5 60c-0.1 0-0.2 0-0.3 0 -3.6-1.1-7-2.9-10.2-5.4C6.2 48.4 1.5 38.5 1.5 28.1V9c0-0.6 0.4-1 1-1 14.7 0 21.2-7.6 21.2-7.6 0.4-0.5 1.2-0.5 1.5 0 0.1 0.1 6.6 7.6 21.2 7.6 0.6 0 1 0.4 1 1v19.1c0 10.4-4.7 20.3-12.5 26.5 -3.2 2.5-6.6 4.3-10.2 5.4C24.7 60 24.6 60 24.5 60zM3.5 10v18.1c0 9.8 4.4 19.2 11.8 24.9 2.9 2.3 6 3.9 9.2 4.9 3.2-1 6.3-2.7 9.2-4.9 7.4-5.8 11.8-15.1 11.8-24.9V10c-12.2-0.3-18.9-5.5-21-7.5C22.4 4.5 15.7 9.7 3.5 10z" fill="#556080"/><path d="M55 36.3l-3.3-3.8c-0.5 4.2-1.7 7.4-1.7 7.4 0-5.5-2-10.4-4.5-14.5l-0.4-0.5 -3.2 3.7c-4.2 4.8-6 11.3-4.6 17.5 0 0.1 0 0.1 0 0.2 0 0-2.5-3.6-3.7-8 -3.1 5-2.7 11.6 1.3 16.1 5.4 6.1 14.8 6.1 20.2 0.1C59.7 49.4 59.6 41.5 55 36.3z" fill="#F0C419"/><path d="M49.1 49.8l-1.4-1.5c-0.2 1.7-0.7 3-0.7 3 0-2.3-0.8-4.3-1.9-5.9l-0.2-0.2 -1.3 1.5c-1.7 1.9-2.4 4.6-1.9 7.1 0 0 0 0 0 0.1 0 0-1-1.5-1.5-3.2 -1.3 2-1.1 4.7 0.5 6.6 2.2 2.5 6 2.5 8.2 0.1C51 55.1 51 51.9 49.1 49.8z" fill="#F18D46"/></svg>