<?xml version="1.0" encoding="UTF-8"?>
<!-- Generator: Adobe Illustrator 16.0.3, SVG Export Plug-In . SVG Version: 6.00 Build 0)  -->
<!DOCTYPE svg PUBLIC "-//W3C//DTD SVG 1.1//EN" "http://www.w3.org/Graphics/SVG/1.1/DTD/svg11.dtd">
<svg version="1.1" id="Layer_1" xmlns="http://www.w3.org/2000/svg" xmlns:xlink="http://www.w3.org/1999/xlink" x="0px" y="0px" width="612px" height="118px" viewBox="294 449.5 612 118" enable-background="new 294 449.5 612 118" xml:space="preserve">
<path fill="#FFFFFF" d="M335.583,540.279c-10.038,0-19.281-3.577-25.641-9.839c-6.659-6.261-10.436-13.417-10.436-22.859  c0-9.44,3.379-18.484,10.039-24.646c2.981-2.783,7.652-6.261,11.627-8.05l1.392-3.18c-5.367,1.987-11.23,5.366-15.404,9.441  c-7.455,7.057-12.026,16.696-12.026,27.33c0,10.833,4.572,20.475,11.827,27.431c7.454,7.055,17.392,11.229,28.623,11.229  c11.23,0,21.268-4.175,28.623-11.229c7.454-7.057,11.827-16.598,11.827-27.231c0-10.634-4.571-20.473-11.827-27.231  c-4.174-4.076-9.938-7.454-15.405-9.442l1.392,3.18c3.976,1.789,8.646,5.168,11.628,8.051c6.659,6.261,10.038,15.206,10.038,24.647  s-3.776,16.597-10.436,22.859C354.863,536.702,345.62,540.279,335.583,540.279"/>
<polygon fill="#FFFFFF" points="335.583,451.132 309.941,520.105 335.583,503.21 361.422,520.105 "/>
<polygon fill="#FFFFFF" points="420.159,511.262 420.159,482.239 430.197,482.239 430.197,529.049 419.762,529.049 401.176,500.427   401.176,529.049 391.139,529.049 391.139,482.239 401.376,482.239 "/>
<path fill="#FFFFFF" d="M460.509,481.643c12.82,0,21.268,7.057,21.268,23.058c0,16-7.851,24.945-23.157,24.945  c-12.82,0-21.069-7.454-21.069-23.454C437.85,490.19,445.005,481.643,460.509,481.643 M459.515,521.298  c8.846,0,12.225-4.174,12.225-16.796c0-11.231-3.379-14.61-11.429-14.61c-8.647,0-12.225,3.975-12.225,16.399  C448.086,517.422,451.464,521.298,459.515,521.298"/>
<path fill="#FFFFFF" d="M523.022,496.452c0,7.852-4.572,11.826-10.236,13.416l12.224,19.281h-12.224l-10.436-18.188h-2.783v18.188  h-10.039v-46.91h17.393C518.152,482.239,523.022,487.208,523.022,496.452 M505.531,502.415c4.77,0,7.652-1.392,7.652-6.261  c0-4.97-2.981-5.765-8.447-5.765h-5.168v11.827h5.963V502.415z"/>
<path fill="#FFFFFF" d="M531.768,482.239h16.598c16,0,22.858,9.64,22.858,23.455c0,15.406-8.845,23.455-24.25,23.455h-15.207  V482.239L531.768,482.239z M541.607,521.298h4.571c8.845,0,14.61-2.981,14.61-15.604c0-12.224-5.168-15.604-14.212-15.604h-4.969  V521.298z"/>
<rect x="578.877" y="482.239" fill="#FFFFFF" width="10.037" height="46.712"/>
<path fill="#FFFFFF" d="M631.45,491.979c-2.782-0.993-6.261-1.987-10.831-1.987c-9.84,0-14.016,4.771-14.016,16.001  c0,10.437,3.183,15.405,13.617,15.405c4.572,0,8.845-1.392,12.224-3.181l1.392,7.652c-3.578,1.987-9.441,3.776-16,3.776  c-14.61,0-21.269-11.031-21.269-23.653c0-13.417,6.659-24.449,22.262-24.449c4.572,0,10.834,0.795,14.41,2.385L631.45,491.979z"/>
<polygon fill="#FFFFFF" points="674.485,514.44 685.517,482.239 696.349,482.239 678.56,529.248 670.112,529.248 652.619,482.239   663.453,482.239 "/>
<rect x="702.312" y="482.239" fill="#FFFFFF" width="10.039" height="46.712"/>
<path fill="#FFFFFF" d="M722.786,518.515c4.57,1.791,9.839,2.982,14.013,2.982c4.372,0,6.856-1.988,6.856-4.97  c0-3.181-2.583-4.971-7.453-6.858c-8.05-2.782-15.205-5.167-15.205-14.608c0-9.044,8.249-13.218,17.391-13.218  c5.168,0,10.237,1.192,13.614,2.583l-1.985,8.447c-4.175-1.788-9.044-2.583-11.429-2.583c-4.174,0-7.257,1.59-7.257,4.771  c0,3.18,3.978,4.77,8.448,6.261c8.447,2.584,13.815,7.056,13.815,14.41c0,8.646-6.857,14.213-16.398,14.213  c-6.263,0-13.019-1.393-16.795-3.378L722.786,518.515z"/>
<rect x="761.446" y="482.239" fill="#FFFFFF" width="10.038" height="46.712"/>
<polygon fill="#FFFFFF" points="801.795,490.588 801.795,529.049 791.759,529.049 791.759,490.588 778.145,490.588 778.145,482.239   815.412,482.239 815.412,490.588 "/>
<path fill="#FFFFFF" d="M838.867,481.643c12.819,0,21.268,7.057,21.268,23.058c0,16-7.851,24.945-23.057,24.945  c-12.821,0-21.069-7.454-21.069-23.454C816.206,490.19,823.362,481.643,838.867,481.643 M837.874,521.298  c8.844,0,12.224-4.174,12.224-16.796c0-11.231-3.38-14.61-11.431-14.61c-8.646,0-12.224,3.975-12.224,16.399  C826.245,517.422,829.823,521.298,837.874,521.298"/>
<path fill="#FFFFFF" d="M901.38,496.452c0,7.852-4.571,11.826-10.236,13.416l12.224,19.181h-12.224l-10.436-18.186h-2.784v18.186  h-10.038v-46.81h17.394C896.51,482.239,901.38,487.208,901.38,496.452 M883.889,502.415c4.77,0,7.652-1.392,7.652-6.261  c0-4.97-2.982-5.765-8.448-5.765h-5.169v11.827h5.965V502.415z"/>
<g opacity="0.6">
	<path fill="#FFFFFF" d="M592.393,546.642v19.976h-5.467v-19.976h-7.652v-5.07h20.771v5.07H592.393z"/>
	<path fill="#FFFFFF" d="M619.326,566.617l-5.367-8.05h-4.372v8.05h-5.367v-25.046h11.428c5.864,0,9.442,3.082,9.442,8.25v0.1   c0,4.073-2.187,6.56-5.367,7.751l6.063,8.945H619.326L619.326,566.617z M619.426,550.12c0-2.386-1.69-3.579-4.274-3.579h-5.466   v7.156h5.565C617.935,553.697,619.426,552.307,619.426,550.12L619.426,550.12z"/>
	<path fill="#FFFFFF" d="M648.643,566.617l-2.284-5.565h-10.534l-2.287,5.565h-5.565l10.733-25.146h5.069l10.733,25.146H648.643z    M641.091,548.031l-3.279,8.15h6.659L641.091,548.031z"/>
	<path fill="#FFFFFF" d="M667.526,566.717h-4.869l-10.138-25.146h6.063l6.56,17.592l6.56-17.592h5.962L667.526,566.717z"/>
	<path fill="#FFFFFF" d="M681.441,566.617v-25.046h18.883v4.872h-13.417v5.068h11.826v4.869h-11.826v5.267h13.616v4.869h-19.082   V566.617z"/>
	<path fill="#FFFFFF" d="M705.394,566.617v-25.046h5.466v19.977h12.421v4.969h-17.887V566.617z"/>
	<path fill="#FFFFFF" d="M738.288,566.617v-25.046h18.885v4.872h-13.418v5.068h11.828v4.869h-11.828v5.267h13.516v4.869h-18.982   V566.617z"/>
	<path fill="#FFFFFF" d="M777.845,566.617l-5.565-8.548l-5.665,8.548h-6.261l8.744-12.721l-8.445-12.325h6.458l5.268,8.15   l5.268-8.15h6.261l-8.35,12.225l8.748,12.821H777.845L777.845,566.617z"/>
	<path fill="#FFFFFF" d="M798.02,559.063h-4.173v7.454h-5.467v-24.945h10.236c5.962,0,9.54,3.579,9.54,8.648v0.099   C808.156,556.083,803.685,559.063,798.02,559.063z M802.592,550.318c0-2.485-1.69-3.777-4.475-3.777h-4.271v7.652h4.371   C801.001,554.193,802.592,552.505,802.592,550.318L802.592,550.318z"/>
	<path fill="#FFFFFF" d="M812.231,566.617v-25.046h18.884v4.872h-13.418v5.068h11.826v4.869h-11.826v5.267h13.615v4.869h-19.081   V566.617z"/>
	<path fill="#FFFFFF" d="M851.39,566.617l-5.367-8.05h-4.372v8.05h-5.467v-25.046h11.429c5.863,0,9.441,3.082,9.441,8.25v0.1   c0,4.073-2.187,6.56-5.367,7.751l6.063,8.945H851.39L851.39,566.617z M851.49,550.12c0-2.386-1.691-3.579-4.275-3.579h-5.466v7.156   h5.566C849.898,553.697,851.49,552.307,851.49,550.12L851.49,550.12z"/>
	<path fill="#FFFFFF" d="M873.354,546.642v19.976h-5.468v-19.976h-7.651v-5.07h20.771v5.07H873.354z"/>
	<path fill="#FFFFFF" d="M893.527,566.915c-3.775,0-7.651-1.292-10.634-3.976l3.281-3.877c2.284,1.891,4.571,3.083,7.452,3.083   c2.287,0,3.579-0.896,3.579-2.386v-0.099c0-1.392-0.896-2.088-5.07-3.181c-5.068-1.293-8.247-2.685-8.247-7.652v-0.101   c0-4.572,3.677-7.553,8.745-7.553c3.677,0,6.758,1.192,9.242,3.179l-2.882,4.175c-2.186-1.49-4.373-2.483-6.46-2.483   s-3.18,0.993-3.18,2.186v0.099c0,1.691,1.093,2.188,5.367,3.281c5.068,1.292,7.949,3.18,7.949,7.452v0.101   C902.673,564.132,898.896,566.915,893.527,566.915z"/>
</g>
<style xmlns="http://www.w3.org/1999/xhtml" charset="utf-8" type="text/css" class="firebugResetStyles">/* See license.txt for terms of usage */
/** reset styling **/
.firebugResetStyles {
    z-index: 2147483646 !important;
    top: 0 !important;
    left: 0 !important;
    display: block !important;
    border: 0 none !important;
    margin: 0 !important;
    padding: 0 !important;
    outline: 0 !important;
    min-width: 0 !important;
    max-width: none !important;
    min-height: 0 !important;
    max-height: none !important;
    position: fixed !important;
    transform: rotate(0deg) !important;
    transform-origin: 50% 50% !important;
    border-radius: 0 !important;
    box-shadow: none !important;
    background: transparent none !important;
    pointer-events: none !important;
    white-space: normal !important;
}
style.firebugResetStyles {
    display: none !important;
}

.firebugBlockBackgroundColor {
    background-color: transparent !important;
}

.firebugResetStyles:before, .firebugResetStyles:after {
    content: "" !important;
}
/**actual styling to be modified by firebug theme**/
.firebugCanvas {
    display: none !important;
}

/* * * * * * * * * * * * * * * * * * * * * * * * * * * * * * * * * * * * * * * * * * * * * * * * */
.firebugLayoutBox {
    width: auto !important;
    position: static !important;
}

.firebugLayoutBoxOffset {
    opacity: 0.8 !important;
    position: fixed !important;
}

.firebugLayoutLine {
    opacity: 0.4 !important;
    background-color: #000000 !important;
}

.firebugLayoutLineLeft, .firebugLayoutLineRight {
    width: 1px !important;
    height: 100% !important;
}

.firebugLayoutLineTop, .firebugLayoutLineBottom {
    width: 100% !important;
    height: 1px !important;
}

.firebugLayoutLineTop {
    margin-top: -1px !important;
    border-top: 1px solid #999999 !important;
}

.firebugLayoutLineRight {
    border-right: 1px solid #999999 !important;
}

.firebugLayoutLineBottom {
    border-bottom: 1px solid #999999 !important;
}

.firebugLayoutLineLeft {
    margin-left: -1px !important;
    border-left: 1px solid #999999 !important;
}

/* * * * * * * * * * * * * * * * * * * * * * * * * * * * * * * * * * * * * * * * * * * * * * * * */
.firebugLayoutBoxParent {
    border-top: 0 none !important;
    border-right: 1px dashed #E00 !important;
    border-bottom: 1px dashed #E00 !important;
    border-left: 0 none !important;
    position: fixed !important;
    width: auto !important;
}

.firebugRuler{
    position: absolute !important;
}

.firebugRulerH {
    top: -15px !important;
    left: 0 !important;
    width: 100% !important;
    height: 14px !important;
    background: url("data:image/png,%89PNG%0D%0A%1A%0A%00%00%00%0DIHDR%00%00%13%88%00%00%00%0E%08%02%00%00%00L%25a%0A%00%00%00%04gAMA%00%00%D6%D8%D4OX2%00%00%00%19tEXtSoftware%00Adobe%20ImageReadyq%C9e%3C%00%00%04%F8IDATx%DA%EC%DD%D1n%E2%3A%00E%D1%80%F8%FF%EF%E2%AF2%95%D0D4%0E%C1%14%B0%8Fa-%E9%3E%CC%9C%87n%B9%81%A6W0%1C%A6i%9A%E7y%0As8%1CT%A9R%A5J%95*U%AAT%A9R%A5J%95*U%AAT%A9R%A5J%95*U%AAT%A9R%A5J%95*U%AAT%A9R%A5J%95*U%AAT%A9R%A5J%95*U%AAT%A9R%A5J%95*U%AATE9%FE%FCw%3E%9F%AF%2B%2F%BA%97%FDT%1D~K(%5C%9D%D5%EA%1B%5C%86%B5%A9%BDU%B5y%80%ED%AB*%03%FAV9%AB%E1%CEj%E7%82%EF%FB%18%BC%AEJ8%AB%FA'%D2%BEU9%D7U%ECc0%E1%A2r%5DynwVi%CFW%7F%BB%17%7Dy%EACU%CD%0E%F0%FA%3BX%FEbV%FEM%9B%2B%AD%BE%AA%E5%95v%AB%AA%E3E5%DCu%15rV9%07%B5%7F%B5w%FCm%BA%BE%AA%FBY%3D%14%F0%EE%C7%60%0EU%AAT%A9R%A5J%95*U%AAT%A9R%A5J%95*U%AAT%A9R%A5J%95*U%AAT%A9R%A5J%95*U%AAT%A9R%A5JU%88%D3%F5%1F%AE%DF%3B%1B%F2%3E%DAUCNa%F92%D02%AC%7Dm%F9%3A%D4%F2%8B6%AE*%BF%5C%C2Ym~9g5%D0Y%95%17%7C%C8c%B0%7C%18%26%9CU%CD%13i%F7%AA%90%B3Z%7D%95%B4%C7%60%E6E%B5%BC%05%B4%FBY%95U%9E%DB%FD%1C%FC%E0%9F%83%7F%BE%17%7DkjMU%E3%03%AC%7CWj%DF%83%9An%BCG%AE%F1%95%96yQ%0Dq%5Dy%00%3Et%B5'%FC6%5DS%95pV%95%01%81%FF'%07%00%00%00%00%00%00%00%00%00%F8x%C7%F0%BE%9COp%5D%C9%7C%AD%E7%E6%EBV%FB%1E%E0(%07%E5%AC%C6%3A%ABi%9C%8F%C6%0E9%AB%C0'%D2%8E%9F%F99%D0E%B5%99%14%F5%0D%CD%7F%24%C6%DEH%B8%E9rV%DFs%DB%D0%F7%00k%FE%1D%84%84%83J%B8%E3%BA%FB%EF%20%84%1C%D7%AD%B0%8E%D7U%C8Y%05%1E%D4t%EF%AD%95Q%BF8w%BF%E9%0A%BF%EB%03%00%00%00%00%00%00%00%00%00%B8vJ%8E%BB%F5%B1u%8Cx%80%E1o%5E%CA9%AB%CB%CB%8E%03%DF%1D%B7T%25%9C%D5(%EFJM8%AB%CC'%D2%B2*%A4s%E7c6%FB%3E%FA%A2%1E%80~%0E%3E%DA%10x%5D%95Uig%15u%15%ED%7C%14%B6%87%A1%3B%FCo8%A8%D8o%D3%ADO%01%EDx%83%1A~%1B%9FpP%A3%DC%C6'%9C%95gK%00%00%00%00%00%00%00%00%00%20%D9%C9%11%D0%C0%40%AF%3F%EE%EE%92%94%D6%16X%B5%BCMH%15%2F%BF%D4%A7%C87%F1%8E%F2%81%AE%AAvzr%DA2%ABV%17%7C%E63%83%E7I%DC%C6%0Bs%1B%EF6%1E%00%00%00%00%00%00%00%00%00%80cr%9CW%FF%7F%C6%01%0E%F1%CE%A5%84%B3%CA%BC%E0%CB%AA%84%CE%F9%BF)%EC%13%08WU%AE%AB%B1%AE%2BO%EC%8E%CBYe%FE%8CN%ABr%5Dy%60~%CFA%0D%F4%AE%D4%BE%C75%CA%EDVB%EA(%B7%F1%09g%E5%D9%12%00%00%00%00%00%00%00%00%00H%F6%EB%13S%E7y%5E%5E%FB%98%F0%22%D1%B2'%A7%F0%92%B1%BC%24z3%AC%7Dm%60%D5%92%B4%7CEUO%5E%F0%AA*%3BU%B9%AE%3E%A0j%94%07%A0%C7%A0%AB%FD%B5%3F%A0%F7%03T%3Dy%D7%F7%D6%D4%C0%AAU%D2%E6%DFt%3F%A8%CC%AA%F2%86%B9%D7%F5%1F%18%E6%01%F8%CC%D5%9E%F0%F3z%88%AA%90%EF%20%00%00%00%00%00%00%00%00%00%C0%A6%D3%EA%CFi%AFb%2C%7BB%0A%2B%C3%1A%D7%06V%D5%07%A8r%5D%3D%D9%A6%CAu%F5%25%CF%A2%99%97zNX%60%95%AB%5DUZ%D5%FBR%03%AB%1C%D4k%9F%3F%BB%5C%FF%81a%AE%AB'%7F%F3%EA%FE%F3z%94%AA%D8%DF%5B%01%00%00%00%00%00%00%00%00%00%8E%FB%F3%F2%B1%1B%8DWU%AAT%A9R%A5J%95*U%AAT%A9R%A5J%95*U%AAT%A9R%A5J%95*U%AAT%A9R%A5J%95*U%AAT%A9R%A5J%95*U%AAT%A9R%A5J%95*U%AAT%A9R%A5J%95*UiU%C7%BBe%E7%F3%B9%CB%AAJ%95*U%AAT%A9R%A5J%95*U%AAT%A9R%A5J%95*U%AAT%A9R%A5J%95*U%AAT%A9R%A5J%95*U%AAT%A9R%A5J%95*U%AAT%A9R%A5J%95*U%AAT%A9R%A5*%AAj%FD%C6%D4%5Eo%90%B5Z%ADV%AB%D5j%B5Z%ADV%AB%D5j%B5Z%ADV%AB%D5j%B5Z%ADV%AB%D5j%B5Z%ADV%AB%D5j%B5Z%ADV%AB%D5j%B5Z%ADV%AB%D5j%B5%86%AF%1B%9F%98%DA%EBm%BBV%AB%D5j%B5Z%ADV%AB%D5j%B5Z%ADV%AB%D5j%B5Z%ADV%AB%D5j%B5Z%ADV%AB%D5j%B5Z%ADV%AB%D5j%B5Z%ADV%AB%D5j%B5Z%AD%D6%E4%F58%01%00%00%00%00%00%00%00%00%00%00%00%00%00%40%85%7F%02%0C%008%C2%D0H%16j%8FX%00%00%00%00IEND%AEB%60%82") repeat-x !important;
    border-top: 1px solid #BBBBBB !important;
    border-right: 1px dashed #BBBBBB !important;
    border-bottom: 1px solid #000000 !important;
}

.firebugRulerV {
    top: 0 !important;
    left: -15px !important;
    width: 14px !important;
    height: 100% !important;
    background: url("data:image/png,%89PNG%0D%0A%1A%0A%00%00%00%0DIHDR%00%00%00%0E%00%00%13%88%08%02%00%00%00%0E%F5%CB%10%00%00%00%04gAMA%00%00%D6%D8%D4OX2%00%00%00%19tEXtSoftware%00Adobe%20ImageReadyq%C9e%3C%00%00%06~IDATx%DA%EC%DD%D1v%A20%14%40Qt%F1%FF%FF%E4%97%D9%07%3BT%19%92%DC%40(%90%EEy%9A5%CB%B6%E8%F6%9Ac%A4%CC0%84%FF%DC%9E%CF%E7%E3%F1%88%DE4%F8%5D%C7%9F%2F%BA%DD%5E%7FI%7D%F18%DDn%BA%C5%FB%DF%97%BFk%F2%10%FF%FD%B4%F2M%A7%FB%FD%FD%B3%22%07p%8F%3F%AE%E3%F4S%8A%8F%40%EEq%9D%BE8D%F0%0EY%A1Uq%B7%EA%1F%81%88V%E8X%3F%B4%CEy%B7h%D1%A2E%EBohU%FC%D9%AF2fO%8BBeD%BE%F7X%0C%97%A4%D6b7%2Ck%A5%12%E3%9B%60v%B7r%C7%1AI%8C%BD%2B%23r%00c0%B2v%9B%AD%CA%26%0C%1Ek%05A%FD%93%D0%2B%A1u%8B%16-%95q%5Ce%DCSO%8E%E4M%23%8B%F7%C2%FE%40%BB%BD%8C%FC%8A%B5V%EBu%40%F9%3B%A72%FA%AE%8C%D4%01%CC%B5%DA%13%9CB%AB%E2I%18%24%B0n%A9%0CZ*Ce%9C%A22%8E%D8NJ%1E%EB%FF%8F%AE%CAP%19*%C3%BAEKe%AC%D1%AAX%8C*%DEH%8F%C5W%A1e%AD%D4%B7%5C%5B%19%C5%DB%0D%EF%9F%19%1D%7B%5E%86%BD%0C%95%A12%AC%5B*%83%96%CAP%19%F62T%86%CAP%19*%83%96%CA%B8Xe%BC%FE)T%19%A1%17xg%7F%DA%CBP%19*%C3%BA%A52T%86%CAP%19%F62T%86%CA%B0n%A9%0CZ%1DV%C6%3D%F3%FCH%DE%B4%B8~%7F%5CZc%F1%D6%1F%AF%84%F9%0F6%E6%EBVt9%0E~%BEr%AF%23%B0%97%A12T%86%CAP%19%B4T%86%CA%B8Re%D8%CBP%19*%C3%BA%A52huX%19%AE%CA%E5%BC%0C%7B%19*CeX%B7h%A9%0C%95%E1%BC%0C%7B%19*CeX%B7T%06%AD%CB%5E%95%2B%BF.%8F%C5%97%D5%E4%7B%EE%82%D6%FB%CF-%9C%FD%B9%CF%3By%7B%19%F62T%86%CA%B0n%D1R%19*%A3%D3%CA%B0%97%A12T%86uKe%D0%EA%B02*%3F1%99%5DB%2B%A4%B5%F8%3A%7C%BA%2B%8Co%7D%5C%EDe%A8%0C%95a%DDR%19%B4T%C66%82fA%B2%ED%DA%9FC%FC%17GZ%06%C9%E1%B3%E5%2C%1A%9FoiB%EB%96%CA%A0%D5qe4%7B%7D%FD%85%F7%5B%ED_%E0s%07%F0k%951%ECr%0D%B5C%D7-g%D1%A8%0C%EB%96%CA%A0%A52T%C6)*%C3%5E%86%CAP%19%D6-%95A%EB*%95q%F8%BB%E3%F9%AB%F6%E21%ACZ%B7%22%B7%9B%3F%02%85%CB%A2%5B%B7%BA%5E%B7%9C%97%E1%BC%0C%EB%16-%95%A12z%AC%0C%BFc%A22T%86uKe%D0%EA%B02V%DD%AD%8A%2B%8CWhe%5E%AF%CF%F5%3B%26%CE%CBh%5C%19%CE%CB%B0%F3%A4%095%A1%CAP%19*Ce%A8%0C%3BO*Ce%A8%0C%95%A12%3A%AD%8C%0A%82%7B%F0v%1F%2FD%A9%5B%9F%EE%EA%26%AF%03%CA%DF9%7B%19*Ce%A8%0C%95%A12T%86%CA%B8Ze%D8%CBP%19*Ce%A8%0C%95%D1ae%EC%F7%89I%E1%B4%D7M%D7P%8BjU%5C%BB%3E%F2%20%D8%CBP%19*Ce%A8%0C%95%A12T%C6%D5*%C3%5E%86%CAP%19*Ce%B4O%07%7B%F0W%7Bw%1C%7C%1A%8C%B3%3B%D1%EE%AA%5C%D6-%EBV%83%80%5E%D0%CA%10%5CU%2BD%E07YU%86%CAP%19*%E3%9A%95%91%D9%A0%C8%AD%5B%EDv%9E%82%FFKOee%E4%8FUe%A8%0C%95%A12T%C6%1F%A9%8C%C8%3D%5B%A5%15%FD%14%22r%E7B%9F%17l%F8%BF%ED%EAf%2B%7F%CF%ECe%D8%CBP%19*Ce%A8%0C%95%E1%93~%7B%19%F62T%86%CAP%19*Ce%A8%0C%E7%13%DA%CBP%19*Ce%A8%0CZf%8B%16-Z%B4h%D1R%19f%8B%16-Z%B4h%D1R%19%B4%CC%16-Z%B4h%D1R%19%B4%CC%16-Z%B4h%D1%A2%A52%CC%16-Z%B4h%D1%A2%A52h%99-Z%B4h%D1%A2%A52h%99-Z%B4h%D1%A2EKe%98-Z%B4h%D1%A2EKe%D02%5B%B4h%D1%A2EKe%D02%5B%B4h%D1%A2E%8B%96%CA0%5B%B4h%D1%A2E%8B%96%CA%A0e%B6h%D1%A2E%8B%96%CA%A0e%B6h%D1%A2E%8B%16-%95a%B6h%D1%A2E%8B%16-%95A%CBl%D1%A2E%8B%16-%95A%CBl%D1%A2E%8B%16-Z*%C3l%D1%A2E%8B%16-Z*%83%96%D9%A2E%8B%16-Z*%83%96%D9%A2E%8B%16-Z%B4T%86%D9%A2E%8B%16-Z%B4T%06-%B3E%8B%16-Z%B4T%06-%B3E%8B%16-Z%B4h%A9%0C%B3E%8B%16-Z%B4h%A9%0CZf%8B%16-Z%B4h%A9%0CZf%8B%16-Z%B4h%D1R%19f%8B%16-Z%B4h%D1R%19%B4%CC%16-Z%B4h%D1R%19%B4%CC%16-Z%B4h%D1%A2%A52%CC%16-Z%B4h%D1%A2%A52h%99-Z%B4h%D1%A2%A52h%99-Z%B4h%D1%A2EKe%98-Z%B4h%D1%A2EKe%D02%5B%B4h%D1%A2EKe%D02%5B%B4h%D1%A2E%8B%96%CA0%5B%B4h%D1%A2E%8B%96%CA%A0e%B6h%D1%A2E%8B%96%CA%A0e%B6h%D1%A2E%8B%16-%95a%B6h%D1%A2E%8B%16-%95A%CBl%D1%A2E%8B%16-%95A%CBl%D1%A2E%8B%16-Z*%C3l%D1%A2E%8B%16-Z*%83%96%D9%A2E%8B%16-Z*%83%96%D9%A2E%8B%16-Z%B4T%86%D9%A2E%8B%16-Z%B4T%06-%B3E%8B%16-Z%B4T%06-%B3E%8B%16-Z%B4h%A9%0C%B3E%8B%16-Z%B4h%A9%0CZf%8B%16-Z%B4h%A9%0CZf%8B%16-Z%B4h%D1R%19f%8B%16-Z%B4h%D1R%19%B4%CC%16-Z%B4h%D1R%19%B4%CC%16-Z%B4h%D1%A2%A52%CC%16-Z%B4h%D1%A2%A52h%99-Z%B4h%D1%A2%A52h%99-Z%B4h%D1%A2EKe%98-Z%B4h%D1%A2EKe%D02%5B%B4h%D1%A2EKe%D02%5B%B4h%D1%A2E%8B%96%CA0%5B%B4h%D1%A2E%8B%96%CA%A0e%B6h%D1%A2E%8B%96%CA%A0e%B6h%D1%A2E%8B%16-%95a%B6h%D1%A2E%8B%16-%95A%CBl%D1%A2E%8B%16-%95A%CBl%D1%A2E%8B%16-Z*%C3l%D1%A2E%8B%16-Z*%83%96%D9%A2E%8B%16-Z*%83%96%D9%A2E%8B%16-Z%B4T%86%D9%A2E%8B%16-Z%B4T%06-%B3E%8B%16-Z%B4%AE%A4%F5%25%C0%00%DE%BF%5C'%0F%DA%B8q%00%00%00%00IEND%AEB%60%82") repeat-y !important;
    border-left: 1px solid #BBBBBB !important;
    border-right: 1px solid #000000 !important;
    border-bottom: 1px dashed #BBBBBB !important;
}

.overflowRulerX &gt; .firebugRulerV {
    left: 0 !important;
}

.overflowRulerY &gt; .firebugRulerH {
    top: 0 !important;
}

/* * * * * * * * * * * * * * * * * * * * * * * * * * * * * * * * * * * * * * * * * * * * * * * * */
.fbProxyElement {
    position: fixed !important;
    pointer-events: auto !important;
}
</style></svg>